# xmcd CD database file
#
# Track frame offsets:
#	187
#	42602
#	89540
#	122647
#	147045
#	186757
#
# Disc length: 3179 seconds
#
# Revision: 0
# Processed by: cddbd v1.4PL0 Copyright (c) Steve Scherf et al.
# Submitted via: CDex 1.50
#
DISCID=510c6906
DTITLE=Marion Brown - Soul eyes
DYEAR=1978
DGENRE=Jazz
TTITLE0=Sunshine road
TTITLE1=Soul eyes
TTITLE2=Body and soul
TTITLE3=Afrisa
TTITLE4=Goodbye Pork Pie Hat
TTITLE5=Blue monk
EXTD=YEAR: 1978
EXTT0=
EXTT1=
EXTT2=
EXTT3=
EXTT4=
EXTT5=
PLAYORDER=
